<svg xmlns="http://www.w3.org/2000/svg" width="70" height="70" viewBox="0 0 70 70">
  <metadata><?xpacket begin="﻿" id="W5M0MpCehiHzreSzNTczkc9d"?>
<x:xmpmeta xmlns:x="adobe:ns:meta/" x:xmptk="Adobe XMP Core 5.6-c142 79.160924, 2017/07/13-01:06:39        ">
   <rdf:RDF xmlns:rdf="http://www.w3.org/1999/02/22-rdf-syntax-ns#">
      <rdf:Description rdf:about=""/>
   </rdf:RDF>
</x:xmpmeta>
                                                                                                    
                                                                                                    
                                                                                                    
                                                                                                    
                                                                                                    
                                                                                                    
                                                                                                    
                                                                                                    
                                                                                                    
                                                                                                    
                                                                                                    
                                                                                                    
                                                                                                    
                                                                                                    
                                                                                                    
                                                                                                    
                                                                                                    
                                                                                                    
                                                                                                    
                                                                                                    
                           
<?xpacket end="w"?></metadata>
<defs>
    <style>
      .cls-1 {
        fill: #1269b3;
        fill-rule: evenodd;
      }
    </style>
  </defs>
  <path id="_" data-name="" class="cls-1" d="M1870,10877a35,35,0,1,1-35,35A35.019,35.019,0,0,1,1870,10877Zm-14.36,36.8a0.74,0.74,0,0,0,1.19,0l10.9-10.9v24a0.742,0.742,0,0,0,.85.8h1.96a0.742,0.742,0,0,0,.85-0.8v-24l10.9,10.9a0.74,0.74,0,0,0,1.19,0l1.41-1.4a0.787,0.787,0,0,0,0-1.2l-14.77-14.7a0.673,0.673,0,0,0-1.12,0l-14.77,14.7a0.787,0.787,0,0,0,0,1.2Z" transform="translate(-1835 -10877)"/>
</svg>
