<?xml version="1.0" encoding="utf-8"?>
<!-- Generator: Adobe Illustrator 22.0.1, SVG Export Plug-In . SVG Version: 6.00 Build 0)  -->
<svg version="1.1" id="Layer_1" xmlns="http://www.w3.org/2000/svg" xmlns:xlink="http://www.w3.org/1999/xlink" x="0px" y="0px"
	 viewBox="0 0 31 31.1" style="enable-background:new 0 0 31 31.1;" xml:space="preserve">
<style type="text/css">
	.st0{enable-background:new    ;}
	.st1{fill:#FFFFFF;}
</style>
<g class="st0">
	<path class="st1" d="M18.7,15.6l11.6,11.6c0.3,0.3,0.3,0.7,0,1l-2.2,2.2c-0.4,0.3-0.7,0.3-1,0l-2-2.1l-9.7-9.6L3.9,30.4
		c-0.3,0.3-0.7,0.3-1,0l-2.2-2.2c-0.3-0.4-0.3-0.7,0-1l11.6-11.6L0.7,4c-0.3-0.3-0.3-0.7,0-1l2.2-2.2c0.4-0.3,0.7-0.3,1,0l11.6,11.6
		L27.1,0.8c0.3-0.3,0.7-0.3,1,0l2.2,2.2c0.3,0.4,0.3,0.7,0,1l-2.1,2L18.7,15.6z"/>
</g>
</svg>
