<?xml version="1.0" encoding="utf-8"?>
<!-- Generator: Adobe Illustrator 22.0.1, SVG Export Plug-In . SVG Version: 6.00 Build 0)  -->
<svg version="1.1" id="Layer_1" xmlns="http://www.w3.org/2000/svg" xmlns:xlink="http://www.w3.org/1999/xlink" x="0px" y="0px"
	 viewBox="0 0 26.4 23.1" style="enable-background:new 0 0 26.4 23.1;" xml:space="preserve">
<style type="text/css">
	.st0{enable-background:new    ;}
	.st1{fill:#FFFFFF;}
</style>
<g class="st0">
	<path class="st1" d="M4,3.2c2.5-2.1,5.6-3.1,9.2-3.1c3.6,0,6.7,1,9.2,3.1c2.5,2.1,3.8,4.6,3.8,7.5c0,2.9-1.3,5.4-3.8,7.5
		c-2.5,2.1-5.6,3.1-9.2,3.1c-1.9,0-3.7-0.3-5.4-1c-2.2,1.7-4.6,2.6-7.2,2.6c-0.1,0-0.1,0-0.2-0.1c-0.1-0.1-0.1-0.1-0.2-0.2
		c-0.1-0.2,0-0.3,0.1-0.4c0.1-0.1,0.3-0.4,0.6-0.7c0.3-0.4,0.7-0.9,1.1-1.8c0.5-0.8,0.8-1.6,1-2.4c-1.9-1.9-2.9-4.1-2.9-6.7
		C0.2,7.7,1.4,5.3,4,3.2z M5.5,11.8c0.3,0.3,0.7,0.5,1.1,0.5c0.4,0,0.8-0.2,1.1-0.5c0.3-0.3,0.5-0.7,0.5-1.1c0-0.4-0.2-0.8-0.5-1.1
		C7.5,9.2,7.1,9,6.7,9C6.2,9,5.9,9.2,5.5,9.5C5.2,9.8,5,10.2,5,10.7C5,11.1,5.2,11.5,5.5,11.8z M12,11.8c0.3,0.3,0.7,0.5,1.1,0.5
		c0.4,0,0.8-0.2,1.1-0.5c0.3-0.3,0.5-0.7,0.5-1.1c0-0.4-0.2-0.8-0.5-1.1C14,9.2,13.6,9,13.2,9c-0.4,0-0.8,0.2-1.1,0.5
		c-0.3,0.3-0.5,0.7-0.5,1.1C11.5,11.1,11.7,11.5,12,11.8z M18.5,11.8c0.3,0.3,0.7,0.5,1.1,0.5c0.4,0,0.8-0.2,1.1-0.5
		c0.3-0.3,0.5-0.7,0.5-1.1c0-0.4-0.2-0.8-0.5-1.1C20.5,9.2,20.1,9,19.7,9c-0.4,0-0.8,0.2-1.1,0.5c-0.3,0.3-0.5,0.7-0.5,1.1
		C18,11.1,18.2,11.5,18.5,11.8z"/>
</g>
</svg>
