<?xml version="1.0" encoding="utf-8"?>
<!-- Generator: Adobe Illustrator 22.0.1, SVG Export Plug-In . SVG Version: 6.00 Build 0)  -->
<svg version="1.1" id="Layer_1" xmlns="http://www.w3.org/2000/svg" xmlns:xlink="http://www.w3.org/1999/xlink" x="0px" y="0px"
	 viewBox="0 0 20.4 20.4" style="enable-background:new 0 0 20.4 20.4;" xml:space="preserve">
<style type="text/css">
	.st0{enable-background:new    ;}
	.st1{fill:#747474;}
</style>
<g class="st0">
	<path class="st1" d="M19.3,19.3c-0.1,0.2-0.1,0.3-0.3,0.5c-0.1,0.1-0.3,0.3-0.4,0.3s-0.3,0.1-0.5,0.1c-4.9,0-9.2-1.7-12.7-5.2
		C2,11.5,0.2,7.3,0.2,2.3c0-0.3,0.1-0.5,0.3-0.7c0.2-0.2,0.4-0.4,0.7-0.4l3.9-0.9c0.1-0.1,0.3-0.1,0.4,0c0.1,0,0.3,0.1,0.4,0.1
		C6,0.4,6.1,0.5,6.2,0.6C6.3,0.7,6.4,0.8,6.5,1l1.8,4.2c0.3,0.6,0.1,1.1-0.4,1.4L5.8,8.3c1.4,2.8,3.5,4.9,6.3,6.3l1.7-2.1
		c0.4-0.5,0.9-0.6,1.4-0.4l4.2,1.8c0.3,0.1,0.5,0.3,0.6,0.6c0.1,0.3,0.2,0.5,0.1,0.8L19.3,19.3z M1.5,2.4c0,2.2,0.4,4.4,1.3,6.4
		c0.9,2.1,2.1,3.8,3.5,5.3c1.5,1.5,3.2,2.6,5.3,3.5c2,0.9,4.2,1.3,6.5,1.3l0.9-3.9l-4.2-1.8l-2.3,2.9c-2-0.9-3.7-2-4.9-3.2
		C6.3,11.7,5.2,10,4.3,8l2.9-2.3L5.4,1.5L1.5,2.4z"/>
</g>
</svg>
