<?xml version="1.0" encoding="utf-8"?>
<!-- Generator: Adobe Illustrator 22.0.1, SVG Export Plug-In . SVG Version: 6.00 Build 0)  -->
<svg version="1.1" id="Layer_1" xmlns="http://www.w3.org/2000/svg" xmlns:xlink="http://www.w3.org/1999/xlink" x="0px" y="0px"
	 viewBox="0 0 18.4 18.4" style="enable-background:new 0 0 18.4 18.4;" xml:space="preserve">
<style type="text/css">
	.st0{enable-background:new    ;}
	.st1{fill:#FFFFFF;}
</style>
<g class="st0">
	<path class="st1" d="M12.4,3.7c1.1,0,2.5-0.4,4.1-1.1c0.4-0.2,0.7-0.1,1.1,0.1s0.5,0.5,0.5,0.9v8.5c0,0.4-0.2,0.7-0.5,0.9
		c-1.4,1-2.8,1.4-4.3,1.4c-0.8,0-1.9-0.2-3.1-0.6s-2.1-0.6-2.7-0.6c-1.5,0-2.8,0.3-4,0.8v3.3c0,0.2-0.1,0.4-0.2,0.6
		c-0.2,0.2-0.4,0.2-0.6,0.2H2.1c-0.2,0-0.4-0.1-0.6-0.2c-0.2-0.2-0.2-0.4-0.2-0.6V3.8C0.7,3.4,0.4,2.9,0.4,2.2c0-0.6,0.2-1,0.6-1.4
		c0.4-0.4,0.9-0.6,1.4-0.5c0.5,0,1,0.2,1.3,0.6c0.4,0.4,0.6,0.8,0.6,1.3c0,0,0,0.1,0,0.1c0,0.2,0,0.5-0.1,0.7
		c0.8-0.3,1.6-0.4,2.4-0.4c0.8,0,1.9,0.2,3.1,0.6S11.8,3.7,12.4,3.7z"/>
</g>
</svg>
