<?xml version="1.0" encoding="utf-8"?>
<!-- Generator: Adobe Illustrator 22.0.1, SVG Export Plug-In . SVG Version: 6.00 Build 0)  -->
<svg version="1.1" id="Layer_1" xmlns="http://www.w3.org/2000/svg" xmlns:xlink="http://www.w3.org/1999/xlink" x="0px" y="0px"
	 viewBox="0 0 32 31.7" style="enable-background:new 0 0 32 31.7;" xml:space="preserve">
<style type="text/css">
	.st0{enable-background:new    ;}
	.st1{fill:#242424;}
</style>
<g class="st0">
	<path class="st1" d="M29.5,0.1c0.6,0,1.1,0.2,1.6,0.7c0.4,0.4,0.7,1,0.7,1.6v27c0,0.6-0.2,1.1-0.7,1.6c-0.4,0.4-1,0.7-1.6,0.7h-27
		c-0.6,0-1.1-0.2-1.6-0.7c-0.4-0.4-0.7-1-0.7-1.6v-27c0-0.6,0.2-1.1,0.7-1.6c0.4-0.4,1-0.7,1.6-0.7H29.5z M5.5,9.2
		C6,9.7,6.7,10,7.4,10c0.7,0,1.4-0.3,1.9-0.8c0.5-0.5,0.8-1.2,0.8-1.9c0-0.7-0.3-1.4-0.8-1.9C8.8,4.9,8.2,4.6,7.4,4.6
		C6.7,4.6,6,4.9,5.5,5.4C5,5.9,4.8,6.6,4.8,7.3C4.8,8,5,8.7,5.5,9.2z M9.7,27.1L9.7,27.1l0.1-15H5.1v15H9.7z M27.3,27.1v-8.2
		c0-1.1-0.1-2.1-0.2-2.9c-0.1-0.8-0.4-1.5-0.8-2.2c-0.4-0.7-0.9-1.2-1.7-1.5s-1.7-0.5-2.8-0.5c-1.1,0-2,0.2-2.8,0.7
		c-0.8,0.5-1.3,1-1.7,1.7h-0.1v-2h-4.5v15h4.7v-7.5c0-1.2,0.2-2.1,0.6-2.8c0.4-0.7,1.1-1.1,2.2-1.1c0.6,0,1,0.1,1.4,0.4
		c0.4,0.2,0.6,0.6,0.7,1.1c0.1,0.5,0.2,0.9,0.2,1.2c0,0.4,0.1,0.8,0.1,1.4v7.3H27.3z"/>
</g>
</svg>
