<?xml version="1.0" encoding="utf-8"?>
<!-- Generator: Adobe Illustrator 22.0.1, SVG Export Plug-In . SVG Version: 6.00 Build 0)  -->
<svg version="1.1" id="Layer_1" xmlns="http://www.w3.org/2000/svg" xmlns:xlink="http://www.w3.org/1999/xlink" x="0px" y="0px"
	 viewBox="0 0 20.4 15.4" style="enable-background:new 0 0 20.4 15.4;" xml:space="preserve">
<style type="text/css">
	.st0{enable-background:new    ;}
	.st1{fill:#747474;}
</style>
<g class="st0">
	<path class="st1" d="M18.3,0.2c0.5,0,1,0.2,1.3,0.5c0.4,0.4,0.5,0.8,0.5,1.3v11.3c0,0.5-0.2,1-0.5,1.3c-0.4,0.4-0.8,0.5-1.3,0.5
		H2.1c-0.5,0-1-0.2-1.3-0.5c-0.4-0.4-0.5-0.8-0.5-1.3V2.1c0-0.5,0.2-1,0.5-1.3c0.4-0.4,0.8-0.5,1.3-0.5H18.3z M2.1,1.5
		c-0.2,0-0.3,0.1-0.4,0.2S1.4,1.9,1.4,2.1v1.6C2.3,4.5,4.3,6,7.3,8.4c0.7,0.6,1.2,1,1.4,1.1C8.9,9.7,9.1,9.8,9.4,10
		c0.3,0.2,0.6,0.2,0.8,0.2c0.2,0,0.4,0,0.6-0.1c0.2-0.1,0.4-0.2,0.6-0.4c0.2-0.2,0.4-0.3,0.6-0.4c0.2-0.1,0.4-0.3,0.6-0.5
		C12.8,8.6,13,8.5,13,8.4c3-2.4,5-4,5.9-4.8V2.1c0-0.2-0.1-0.3-0.2-0.4s-0.3-0.2-0.4-0.2H2.1z M18.3,14c0.2,0,0.3-0.1,0.4-0.2
		s0.2-0.3,0.2-0.4v-8C18,6,16.3,7.4,13.8,9.4c-0.1,0-0.2,0.2-0.5,0.4c-0.3,0.3-0.5,0.5-0.7,0.6c-0.2,0.1-0.4,0.3-0.7,0.5
		c-0.3,0.2-0.6,0.3-0.9,0.4c-0.3,0.1-0.6,0.1-0.8,0.1c-0.2,0-0.5,0-0.7-0.1c-0.2-0.1-0.5-0.2-0.7-0.3s-0.4-0.2-0.7-0.4
		c-0.2-0.2-0.4-0.3-0.6-0.4S7.2,10,7,9.8C6.8,9.6,6.6,9.5,6.6,9.4C4.1,7.4,2.3,6,1.4,5.3v8c0,0.2,0.1,0.3,0.2,0.4S1.9,14,2.1,14
		H18.3z"/>
</g>
</svg>
