<?xml version="1.0" encoding="utf-8"?>
<!-- Generator: Adobe Illustrator 22.0.1, SVG Export Plug-In . SVG Version: 6.00 Build 0)  -->
<svg version="1.1" id="Layer_1" xmlns="http://www.w3.org/2000/svg" xmlns:xlink="http://www.w3.org/1999/xlink" x="0px" y="0px"
	 viewBox="0 0 24.4 18.6" style="enable-background:new 0 0 24.4 18.6;" xml:space="preserve">
<style type="text/css">
	.st0{enable-background:new    ;}
	.st1{fill:#242424;}
</style>
<g class="st0">
	<path class="st1" d="M12.2,12.3c-0.3,0-0.6-0.1-0.9-0.3c-0.4-0.2-0.6-0.3-0.9-0.5c-0.2-0.1-0.5-0.4-1-0.7s-0.6-0.5-0.7-0.5
		C5,7.6,2.3,5.5,0.6,4.3C0.4,4.1,0.2,3.8,0.2,3.4V2.5c0-0.6,0.2-1.2,0.7-1.6c0.4-0.4,1-0.7,1.6-0.7H22c0.6,0,1.2,0.2,1.6,0.7
		s0.7,1,0.7,1.6v0.9c0,0.4-0.1,0.7-0.4,0.9c-1.5,1.2-4.3,3.2-8.2,6c0,0-0.3,0.2-0.7,0.5s-0.7,0.6-1,0.7s-0.5,0.3-0.9,0.5
		S12.5,12.3,12.2,12.3z M23.8,6.2c0.1-0.1,0.2-0.1,0.3,0s0.2,0.2,0.2,0.3V16c0,0.6-0.2,1.2-0.7,1.6s-1,0.7-1.6,0.7H2.5
		c-0.6,0-1.2-0.2-1.6-0.7c-0.4-0.4-0.7-1-0.7-1.6V6.4c0-0.1,0.1-0.2,0.2-0.3c0.1,0,0.2,0,0.3,0c1,0.8,3.4,2.5,7.2,5.3
		C8,11.6,8.2,11.7,8.5,12c0.4,0.3,0.6,0.5,0.9,0.6c0.2,0.1,0.5,0.3,0.8,0.5c0.3,0.2,0.7,0.4,1,0.4s0.6,0.1,1,0.1
		c0.3,0,0.6,0,0.8-0.1s0.5-0.2,0.8-0.3s0.5-0.3,0.8-0.4s0.5-0.4,0.7-0.5s0.4-0.3,0.7-0.5s0.4-0.3,0.5-0.4
		C20.2,8.9,22.6,7.1,23.8,6.2z"/>
</g>
</svg>
