<?xml version="1.0" encoding="utf-8"?>
<!-- Generator: Adobe Illustrator 22.0.1, SVG Export Plug-In . SVG Version: 6.00 Build 0)  -->
<svg version="1.1" id="Layer_1" xmlns="http://www.w3.org/2000/svg" xmlns:xlink="http://www.w3.org/1999/xlink" x="0px" y="0px"
	 viewBox="0 0 18.5 24.4" style="enable-background:new 0 0 18.5 24.4;" xml:space="preserve">
<style type="text/css">
	.st0{enable-background:new    ;}
	.st1{fill:#FFFFFF;}
</style>
<g class="st0">
	<path class="st1" d="M8.3,23.7c-0.8-1.1-1.6-2.3-2.6-3.7c-1-1.4-1.6-2.3-2-2.9c-0.4-0.6-0.9-1.3-1.4-2.1c-0.5-0.8-0.9-1.4-1.1-1.8
		c-0.2-0.3-0.4-0.8-0.6-1.3c-0.2-0.5-0.3-1-0.4-1.4S0.2,9.7,0.2,9.2c0-2.5,0.9-4.6,2.6-6.4c1.8-1.8,3.9-2.6,6.4-2.6
		c2.5,0,4.6,0.9,6.4,2.6c1.8,1.7,2.6,3.9,2.6,6.4c0,0.5,0,1-0.1,1.4S18,11.4,17.8,12c-0.2,0.5-0.4,1-0.6,1.3
		c-0.2,0.3-0.5,0.9-1.1,1.8c-0.5,0.8-1,1.5-1.4,2.1c-0.4,0.6-1.1,1.5-2,2.9c-1,1.4-1.8,2.6-2.6,3.7C10,24,9.7,24.2,9.2,24.2
		C8.8,24.2,8.5,24,8.3,23.7z M6.6,11.8c0.7,0.7,1.6,1.1,2.6,1.1s1.9-0.4,2.6-1.1c0.7-0.7,1.1-1.6,1.1-2.6s-0.4-1.9-1.1-2.6
		c-0.7-0.7-1.6-1.1-2.6-1.1S7.3,5.8,6.6,6.5C5.9,7.3,5.5,8.2,5.5,9.2S5.9,11.1,6.6,11.8z"/>
</g>
</svg>
