<?xml version="1.0" encoding="utf-8"?>
<!-- Generator: Adobe Illustrator 22.0.1, SVG Export Plug-In . SVG Version: 6.00 Build 0)  -->
<svg version="1.1" id="Layer_1" xmlns="http://www.w3.org/2000/svg" xmlns:xlink="http://www.w3.org/1999/xlink" x="0px" y="0px"
	 viewBox="0 0 31.8 26.8" style="enable-background:new 0 0 31.8 26.8;" xml:space="preserve">
<style type="text/css">
	.st0{enable-background:new    ;}
	.st1{fill:#FFFFFF;}
</style>
<g class="st0">
	<path class="st1" d="M30.8,4.1H1c-0.6,0-0.8-0.3-0.8-0.8V1c0-0.6,0.3-0.8,0.8-0.8h29.8c0.6,0,0.8,0.3,0.8,0.8v2.3
		C31.7,3.8,31.4,4.1,30.8,4.1z M30.8,15.4H1c-0.6,0-0.8-0.3-0.8-0.8v-2.3c0-0.6,0.3-0.8,0.8-0.8h29.8c0.6,0,0.8,0.3,0.8,0.8v2.3
		C31.7,15.1,31.4,15.4,30.8,15.4z M30.8,26.6H1c-0.6,0-0.8-0.3-0.8-0.8v-2.3c0-0.6,0.3-0.8,0.8-0.8h29.8c0.6,0,0.8,0.3,0.8,0.8v2.3
		C31.7,26.3,31.4,26.6,30.8,26.6z"/>
</g>
</svg>
