<?xml version="1.0" encoding="utf-8"?>
<!-- Generator: Adobe Illustrator 22.0.1, SVG Export Plug-In . SVG Version: 6.00 Build 0)  -->
<svg version="1.1" id="Layer_1" xmlns="http://www.w3.org/2000/svg" xmlns:xlink="http://www.w3.org/1999/xlink" x="0px" y="0px"
	 viewBox="0 0 17.7 20.4" style="enable-background:new 0 0 17.7 20.4;" xml:space="preserve">
<style type="text/css">
	.st0{enable-background:new    ;}
	.st1{fill:#747474;}
</style>
<g class="st0">
	<path class="st1" d="M12.4,11.5c1.4,0,2.7,0.5,3.7,1.5c1,1,1.5,2.3,1.5,3.7v1.6c0,0.5-0.2,1-0.5,1.3c-0.4,0.4-0.8,0.5-1.3,0.5H2
		c-0.5,0-1-0.2-1.3-0.5c-0.4-0.4-0.5-0.8-0.5-1.3v-1.6c0-1.4,0.5-2.7,1.5-3.7c1-1,2.3-1.5,3.7-1.5c0.3,0,0.8,0.1,1.5,0.3
		c0.7,0.2,1.3,0.3,2,0.3c0.7,0,1.4-0.1,2-0.3C11.6,11.6,12,11.5,12.4,11.5z M16.3,18.3v-1.6c0-1.1-0.4-2-1.2-2.8s-1.7-1.2-2.8-1.2
		c-0.2,0-0.6,0.1-1.3,0.3c-0.7,0.2-1.5,0.3-2.2,0.3c-0.8,0-1.5-0.1-2.2-0.3c-0.7-0.2-1.2-0.3-1.3-0.3c-1.1,0-2,0.4-2.8,1.2
		s-1.2,1.7-1.2,2.8v1.6c0,0.2,0.1,0.3,0.2,0.4S1.8,19,2,19h13.8c0.2,0,0.3-0.1,0.4-0.2S16.3,18.5,16.3,18.3z M12.4,8.7
		c-1,1-2.2,1.5-3.5,1.5c-1.4,0-2.6-0.5-3.5-1.5S3.8,6.6,3.8,5.2c0-1.4,0.5-2.6,1.5-3.5s2.2-1.5,3.5-1.5c1.4,0,2.6,0.5,3.5,1.5
		s1.5,2.2,1.5,3.5C13.8,6.6,13.4,7.8,12.4,8.7z M11.5,2.5c-0.7-0.7-1.6-1.1-2.7-1.1c-1,0-1.9,0.4-2.7,1.1C5.5,3.3,5.1,4.2,5.1,5.2
		c0,1,0.4,1.9,1.1,2.7C6.9,8.6,7.8,9,8.8,9c1,0,1.9-0.4,2.7-1.1c0.7-0.7,1.1-1.6,1.1-2.7C12.6,4.2,12.2,3.3,11.5,2.5z"/>
</g>
</svg>
