<?xml version="1.0" encoding="utf-8"?>
<!-- Generator: Adobe Illustrator 22.0.1, SVG Export Plug-In . SVG Version: 6.00 Build 0)  -->
<svg version="1.1" id="Layer_1" xmlns="http://www.w3.org/2000/svg" xmlns:xlink="http://www.w3.org/1999/xlink" x="0px" y="0px"
	 viewBox="0 0 21.4 21.5" style="enable-background:new 0 0 21.4 21.5;" xml:space="preserve">
<style type="text/css">
	.st0{enable-background:new    ;}
	.st1{fill:#242424;}
</style>
<g class="st0">
	<path class="st1" d="M20.1,12.8c0.7,0.9,1.1,2,1.1,3.2c0,1.4-0.5,2.7-1.5,3.7s-2.3,1.5-3.7,1.5c-1.2,0-2.3-0.4-3.2-1.1
		c-0.7,0.1-1.4,0.2-2.1,0.2c-2.7,0-4.9-0.9-6.8-2.8s-2.8-4.1-2.8-6.8c0-0.7,0.1-1.3,0.2-2.1c-0.7-0.9-1.1-2-1.1-3.2
		c0-1.4,0.5-2.7,1.5-3.7S4,0.2,5.4,0.2c1.2,0,2.3,0.4,3.2,1.1c0.7-0.1,1.4-0.2,2.1-0.2c2.7,0,4.9,0.9,6.8,2.8s2.8,4.1,2.8,6.8
		C20.3,11.4,20.2,12.1,20.1,12.8z M11,17.1c1.4,0,2.6-0.4,3.7-1.1c1-0.7,1.6-1.7,1.6-3c0-1.8-1.4-3-4.3-3.7c-0.2,0-0.4-0.1-0.8-0.1
		c-0.5-0.1-0.9-0.2-1.1-0.3C9.9,8.9,9.6,8.8,9.4,8.7C9.1,8.6,8.9,8.5,8.8,8.3C8.8,8.2,8.7,8,8.7,7.8c0-0.7,0.7-1,2-1
		c0.6,0,1.1,0.1,1.5,0.4s0.7,0.5,1,0.8c0.3,0.3,0.6,0.4,1,0.4c0.2,0,0.4,0,0.6-0.1s0.3-0.2,0.4-0.3c0.1-0.1,0.2-0.3,0.3-0.5
		s0.1-0.4,0.1-0.6c0-0.8-0.5-1.4-1.6-1.9s-2.3-0.7-3.6-0.7S7.9,4.6,6.9,5.2c-1,0.6-1.5,1.6-1.5,2.9c0,0.3,0,0.7,0.1,0.9
		s0.1,0.5,0.3,0.8s0.3,0.4,0.4,0.6c0.1,0.2,0.3,0.3,0.6,0.5s0.5,0.3,0.6,0.4s0.4,0.2,0.8,0.3c0.4,0.1,0.7,0.2,0.8,0.2
		c0.2,0,0.5,0.1,1,0.2c0.5,0.1,0.8,0.2,1,0.2c0.5,0.2,0.9,0.3,1.1,0.3s0.4,0.2,0.6,0.3s0.3,0.4,0.3,0.7c0,0.4-0.2,0.7-0.6,0.9
		s-0.9,0.4-1.5,0.4c-0.6,0-1.1-0.1-1.5-0.3c-0.4-0.2-0.8-0.5-1-0.7c-0.2-0.3-0.5-0.5-0.8-0.7c-0.3-0.2-0.6-0.3-0.9-0.3
		c-0.4,0-0.8,0.1-1,0.4s-0.4,0.6-0.4,1c0,0.8,0.6,1.6,1.7,2.2C8.1,16.8,9.4,17.1,11,17.1z"/>
</g>
</svg>
