<?xml version="1.0" encoding="utf-8"?>
<!-- Generator: Adobe Illustrator 22.0.1, SVG Export Plug-In . SVG Version: 6.00 Build 0)  -->
<svg version="1.1" id="Layer_1" xmlns="http://www.w3.org/2000/svg" xmlns:xlink="http://www.w3.org/1999/xlink" x="0px" y="0px"
	 viewBox="0 0 17.6 20.1" style="enable-background:new 0 0 17.6 20.1;" xml:space="preserve">
<style type="text/css">
	.st0{enable-background:new    ;}
	.st1{fill:#747474;}
</style>
<g class="st0">
	<path class="st1" d="M16.9,18.8H17c0.3,0,0.5,0.2,0.5,0.5v0.3c0,0.3-0.2,0.5-0.5,0.5H3.1c-0.9,0-1.6-0.3-2.2-0.9
		C0.3,18.5,0,17.8,0,16.9V3.2C0,2.3,0.3,1.6,0.9,1C1.5,0.4,2.3,0,3.1,0h13.4c0.3,0,0.5,0.1,0.7,0.3c0.2,0.2,0.3,0.4,0.3,0.7v14.4
		c0,0.4-0.2,0.7-0.6,0.9C16.7,17.1,16.7,17.9,16.9,18.8z M15.8,18.8c-0.1-0.8-0.1-1.7,0-2.5H3.1c-0.8,0-1.3,0.2-1.7,0.6
		c-0.3,0.4-0.3,0.8,0,1.3c0.3,0.4,0.9,0.6,1.7,0.6H15.8z M1.3,15.7C1.8,15.3,2.4,15,3.1,15h0.6V1.3H3.1c-0.5,0-1,0.2-1.3,0.5
		C1.4,2.2,1.3,2.6,1.3,3.2V15.7z M5,15h11.3V1.3H5V15z M13.9,6.3H7.4C7,6.3,6.9,6.1,6.9,5.8V5.5C6.9,5.2,7,5,7.4,5h6.6
		c0.3,0,0.5,0.2,0.5,0.5v0.3C14.4,6.1,14.2,6.3,13.9,6.3z M14.4,8.3c0,0.3-0.2,0.5-0.5,0.5H7.4C7,8.8,6.9,8.6,6.9,8.3V8
		c0-0.3,0.2-0.5,0.5-0.5h6.6c0.3,0,0.5,0.2,0.5,0.5V8.3z"/>
</g>
</svg>
