<?xml version="1.0" encoding="utf-8"?>
<!-- Generator: Adobe Illustrator 22.0.1, SVG Export Plug-In . SVG Version: 6.00 Build 0)  -->
<svg version="1.1" id="Layer_1" xmlns="http://www.w3.org/2000/svg" xmlns:xlink="http://www.w3.org/1999/xlink" x="0px" y="0px"
	 viewBox="0 0 22.5 22.1" style="enable-background:new 0 0 22.5 22.1;" xml:space="preserve">
<style type="text/css">
	.st0{fill:#FFFFFF;}
</style>
<path class="st0" d="M20.2,22.1c-3.6,0-7-0.9-10.1-2.7s-5.5-4.2-7.3-7.3s-2.7-6.4-2.7-10c0-0.6,0.3-0.9,0.8-1l4.4-1
	c0.4-0.1,0.7,0,1,0.3c0.1,0.1,0.2,0.2,0.2,0.3l2.1,4.9C8.9,6,8.8,6.4,8.5,6.7L8.5,6.8L5.8,8.7c1.6,3.5,4.2,6,7.7,7.7l2.1-2.6
	l0.1-0.1c0.4-0.4,0.7-0.4,1.2-0.2l4.9,2.1c0.1,0.1,0.2,0.1,0.3,0.2c0.3,0.3,0.4,0.6,0.3,1l-1.1,4.4c-0.1,0.2-0.2,0.4-0.3,0.5
	C20.8,22,20.5,22.1,20.2,22.1z"/>
</svg>
