<?xml version="1.0" encoding="utf-8"?>
<!-- Generator: Adobe Illustrator 22.0.1, SVG Export Plug-In . SVG Version: 6.00 Build 0)  -->
<svg version="1.1" id="Layer_1" xmlns="http://www.w3.org/2000/svg" xmlns:xlink="http://www.w3.org/1999/xlink" x="0px" y="0px"
	 viewBox="0 0 32 26.3" style="enable-background:new 0 0 32 26.3;" xml:space="preserve">
<style type="text/css">
	.st0{enable-background:new    ;}
	.st1{fill:#242424;}
</style>
<g class="st0">
	<path class="st1" d="M31.8,3.3c-0.9,1.3-2,2.4-3.3,3.4c0,0.2,0,0.5,0,0.8c0,1.7-0.3,3.5-0.8,5.2c-0.5,1.7-1.3,3.4-2.3,5
		c-1,1.6-2.3,3-3.7,4.2c-1.4,1.2-3.2,2.2-5.2,2.9S12.4,26,10.1,26c-3.6,0-7-1-10-2.9c0.5,0.1,1,0.1,1.6,0.1c3,0,5.7-0.9,8.1-2.8
		c-1.4,0-2.7-0.5-3.8-1.3c-1.1-0.8-1.9-1.9-2.3-3.2C4.2,16,4.6,16,4.9,16c0.6,0,1.1-0.1,1.7-0.2c-1.5-0.3-2.7-1.1-3.7-2.2
		c-1-1.2-1.5-2.6-1.5-4.1V9.3c0.9,0.5,1.9,0.8,2.9,0.8C3.5,9.6,2.8,8.8,2.3,7.8c-0.5-1-0.8-2-0.8-3.1c0-1.2,0.3-2.3,0.9-3.3
		C4,3.5,6,5.1,8.3,6.3c2.3,1.2,4.8,1.9,7.5,2c-0.1-0.5-0.2-1-0.2-1.5c0-1.8,0.6-3.3,1.9-4.6s2.8-1.9,4.6-1.9c1.9,0,3.5,0.7,4.7,2
		c1.5-0.3,2.8-0.8,4.1-1.6c-0.5,1.5-1.4,2.7-2.9,3.6C29.3,4.2,30.6,3.9,31.8,3.3z"/>
</g>
</svg>
