<?xml version="1.0" encoding="utf-8"?>
<!-- Generator: Adobe Illustrator 22.0.1, SVG Export Plug-In . SVG Version: 6.00 Build 0)  -->
<svg version="1.1" id="Layer_1" xmlns="http://www.w3.org/2000/svg" xmlns:xlink="http://www.w3.org/1999/xlink" x="0px" y="0px"
	 viewBox="0 0 30.4 36.4" style="enable-background:new 0 0 30.4 36.4;" xml:space="preserve">
<style type="text/css">
	.st0{enable-background:new    ;}
	.st1{fill:#242424;}
</style>
<g class="st0">
	<path class="st1" d="M30.1,25.8c0,3.1-0.2,5.5-0.5,7c-0.2,0.8-0.6,1.5-1.2,2c-0.6,0.5-1.3,0.8-2,0.9c-2.5,0.3-6.2,0.4-11.1,0.4
		c-5,0-8.7-0.1-11.1-0.4c-0.8-0.1-1.5-0.4-2.1-0.9c-0.6-0.5-1-1.2-1.2-2c-0.3-1.5-0.5-3.8-0.5-7c0-3.1,0.2-5.5,0.5-7
		C1,18,1.4,17.3,2,16.8s1.3-0.9,2.1-0.9c2.5-0.3,6.2-0.4,11.1-0.4c5,0,8.7,0.1,11.1,0.4c0.8,0.1,1.5,0.4,2.1,0.9s1,1.2,1.2,2
		C29.9,20.3,30.1,22.6,30.1,25.8z M6.6,20.8h2.1v-1.9H2.5v1.9h2.1v11.4h2V20.8z M10,0.1h2l-2.4,8v5.4h-2V8.2C7.4,7.2,7,5.8,6.4,3.9
		C5.9,2.5,5.5,1.3,5.1,0.1h2.1l1.4,5.3L10,0.1z M12.4,32.2h1.8v-9.9h-1.8v7.6c-0.4,0.6-0.8,0.8-1.1,0.8c-0.2,0-0.4-0.1-0.4-0.4
		c0,0,0-0.3,0-0.7v-7.3H9v7.9c0,0.7,0.1,1.1,0.2,1.5c0.2,0.5,0.5,0.7,1.2,0.7c0.6,0,1.3-0.4,2-1.2V32.2z M17.4,6.8v3.5
		c0,1.1-0.2,1.9-0.6,2.4c-0.5,0.7-1.2,1-2.1,1c-0.9,0-1.6-0.3-2.1-1c-0.4-0.5-0.6-1.3-0.6-2.4V6.8c0-1.1,0.2-1.9,0.6-2.4
		c0.5-0.7,1.2-1,2.1-1c0.9,0,1.6,0.3,2.1,1C17.3,5,17.4,5.8,17.4,6.8z M15.6,10.7V6.5c0-0.9-0.3-1.4-0.9-1.4c-0.6,0-0.9,0.5-0.9,1.4
		v4.2c0,0.9,0.3,1.4,0.9,1.4C15.3,12.1,15.6,11.6,15.6,10.7z M21,29.2v-4c0-1-0.1-1.6-0.2-2c-0.2-0.8-0.7-1.1-1.4-1.1
		c-0.7,0-1.3,0.4-1.9,1.1v-4.4h-1.8v13.3h1.8v-1c0.6,0.7,1.2,1.1,1.9,1.1c0.7,0,1.2-0.4,1.4-1.1C21,30.9,21,30.2,21,29.2z
		 M19.3,25.1v4.2c0,0.9-0.3,1.3-0.8,1.3c-0.3,0-0.6-0.1-0.9-0.4v-6c0.3-0.3,0.6-0.4,0.9-0.4C19,23.8,19.3,24.2,19.3,25.1z M24.2,3.6
		v10h-1.8v-1.1c-0.7,0.8-1.4,1.2-2.1,1.2c-0.6,0-1-0.2-1.2-0.7c-0.1-0.3-0.2-0.8-0.2-1.5V3.6h1.8V11c0,0.4,0,0.7,0,0.7
		c0,0.3,0.2,0.4,0.4,0.4c0.4,0,0.7-0.3,1.1-0.9V3.6H24.2z M27.8,29v-0.3H26c0,0.7,0,1.1,0,1.2c-0.1,0.5-0.4,0.7-0.8,0.7
		c-0.6,0-0.9-0.5-0.9-1.4v-1.7h3.6v-2.1c0-1.1-0.2-1.8-0.5-2.3c-0.5-0.7-1.2-1-2.1-1c-0.9,0-1.6,0.3-2.2,1c-0.4,0.5-0.6,1.3-0.6,2.3
		V29c0,1.1,0.2,1.8,0.6,2.3c0.5,0.7,1.2,1,2.2,1c1,0,1.7-0.4,2.2-1.1c0.2-0.4,0.4-0.7,0.4-1.1C27.8,30.1,27.8,29.7,27.8,29z
		 M26,25.2v0.9h-1.8v-0.9c0-0.9,0.3-1.4,0.9-1.4S26,24.2,26,25.2z"/>
</g>
</svg>
